<svg xmlns="http://www.w3.org/2000/svg" viewBox="0 0 800 450" role="img" aria-label="Quran recitation illustration">
  <defs>
    <linearGradient id="g" x1="0" x2="1" y1="0" y2="1">
      <stop offset="0" stop-color="#10b981"/>
      <stop offset="1" stop-color="#0ea5a4"/>
    </linearGradient>
  </defs>
  <rect width="800" height="450" fill="url(#g)"/>
  <g fill="#fff" opacity="0.15">
    <circle cx="120" cy="80" r="60"/>
    <circle cx="700" cy="120" r="80"/>
    <circle cx="400" cy="380" r="100"/>
  </g>
  <g transform="translate(140,80)">
    <rect x="0" y="40" width="520" height="260" rx="18" fill="#ffffff"/>
    <rect x="16" y="56" width="488" height="228" rx="12" fill="#ecfdf5"/>
    <path d="M60 110c40-20 80-20 120 0v100c-40-20-80-20-120 0z" fill="#10b981"/>
    <path d="M260 110c40-20 80-20 120 0v100c-40-20-80-20-120 0z" fill="#10b981"/>
    <line x1="232" y1="90" x2="232" y2="250" stroke="#0ea5a4" stroke-width="6"/>
    <circle cx="440" cy="110" r="20" fill="#34d399"/>
  </g>
</svg>
